<svg width="25" height="24" viewBox="0 0 25 24" fill="none" xmlns="http://www.w3.org/2000/svg">
<path fill-rule="evenodd" clip-rule="evenodd" d="M4.8833 0.000119658H19.2999C19.3293 0.000119658 19.3594 9.10984e-05 19.3903 6.20335e-05C19.7997 -0.000324656 20.3382 -0.000833161 20.8095 0.0632238C21.3938 0.142651 22.2575 0.362751 22.9952 1.10855C23.7328 1.85435 23.9505 2.72764 24.0291 3.31841C24.0924 3.79485 24.0919 4.33934 24.0916 4.75322C24.0915 4.78445 24.0915 4.81494 24.0915 4.8446V19.1554C24.0915 19.1851 24.0915 19.2156 24.0916 19.2468C24.0919 19.6607 24.0924 20.2052 24.0291 20.6816C23.9505 21.2724 23.7328 22.1457 22.9952 22.8915C22.2575 23.6373 21.3938 23.8574 20.8095 23.9368C20.3382 24.0008 19.7997 24.0003 19.3903 23.9999C19.3594 23.9999 19.3293 23.9999 19.2999 23.9999H4.8833C4.85397 23.9999 4.82381 23.9999 4.79292 23.9999C4.38356 24.0003 3.84502 24.0008 3.37378 23.9368C2.78946 23.8574 1.92571 23.6373 1.18806 22.8915C0.450403 22.1457 0.232707 21.2724 0.154147 20.6816C0.0907897 20.2052 0.0912927 19.6607 0.0916751 19.2468C0.0917039 19.2156 0.0917321 19.1851 0.0917321 19.1554V4.8446C0.0917321 4.81494 0.0917039 4.78446 0.0916751 4.75323C0.0912927 4.33935 0.0907897 3.79486 0.154147 3.31841C0.232707 2.72764 0.450403 1.85435 1.18806 1.10855C1.92571 0.362751 2.78946 0.142651 3.37378 0.0632238C3.84503 -0.000833161 4.38357 -0.000324656 4.79293 6.20335e-05C4.82382 9.10984e-05 4.85397 0.000119658 4.8833 0.000119658ZM3.09343 3.03496C2.78633 3.34544 2.78633 3.84516 2.78633 4.8446V19.1554C2.78633 20.1548 2.78633 20.6546 3.09343 20.9651C3.40052 21.2755 3.89478 21.2755 4.8833 21.2755H19.2999C20.2885 21.2755 20.7827 21.2755 21.0898 20.9651C21.3969 20.6546 21.3969 20.1548 21.3969 19.1554V4.8446C21.3969 3.84516 21.3969 3.34544 21.0898 3.03496C20.7827 2.72448 20.2885 2.72448 19.2999 2.72448H4.8833C3.89478 2.72448 3.40052 2.72448 3.09343 3.03496Z" fill="white"/>
<path d="M17.7387 8.80803C17.7387 10.164 16.6394 11.2633 15.2834 11.2633C13.9274 11.2633 12.8282 10.164 12.8282 8.80803C12.8282 7.45203 13.9274 6.35278 15.2834 6.35278C16.6394 6.35278 17.7387 7.45203 17.7387 8.80803Z" fill="#FF6700"/>
<path d="M6.44458 15.3147C6.44458 14.0265 7.48887 12.9822 8.77706 12.9822H11.1095V17.6471H8.77706C7.48887 17.6471 6.44458 16.6029 6.44458 15.3147Z" fill="white"/>
<path d="M15.2834 12.9822C13.9274 12.9822 12.8282 14.0814 12.8282 15.4374V17.6471H17.7387V15.4374C17.7387 14.0814 16.6394 12.9822 15.2834 12.9822Z" fill="white"/>
<path d="M6.44458 6.35278H9.14535C10.2301 6.35278 11.1095 7.23218 11.1095 8.31698V11.0178H6.44458V6.35278Z" fill="white"/>
</svg>
